<?xml version="1.0" standalone="no"?>
<!DOCTYPE svg PUBLIC "-//W3C//DTD SVG 20010904//EN"
 "http://www.w3.org/TR/2001/REC-SVG-20010904/DTD/svg10.dtd">
<svg version="1.0" xmlns="http://www.w3.org/2000/svg"
 width="250.000000pt" height="233.000000pt" viewBox="0 0 250.000000 230.000000"
 preserveAspectRatio="xMidYMid meet">

<g transform="translate(0.000000,237.000000) scale(0.100000,-0.100000)"
fill="#000000" stroke="none">
<path d="M640 2281 c-296 -40 -520 -297 -520 -596 0 -104 21 -191 68 -279 122
-233 393 -365 642 -312 90 19 219 80 277 130 38 33 179 199 695 815 82 97 148
179 148 182 0 17 -89 52 -145 56 -127 11 -169 -18 -355 -242 -80 -96 -148
-174 -151 -175 -3 0 -12 19 -20 42 -21 65 -100 178 -160 231 -129 113 -314
170 -479 148z m227 -301 c206 -101 247 -367 83 -532 -48 -48 -68 -60 -130 -79
-125 -38 -234 -13 -328 75 -107 100 -135 259 -70 389 83 165 277 229 445 147z"/>
<path d="M1708 1325 c-80 -20 -174 -65 -235 -113 -28 -23 -143 -150 -255 -284
-290 -345 -399 -475 -510 -607 l-97 -116 22 -17 c36 -29 88 -42 157 -42 109 0
143 25 317 235 81 98 152 177 157 175 5 -1 17 -24 28 -50 49 -125 162 -243
293 -306 281 -136 629 -29 783 241 108 191 101 441 -19 625 -136 209 -402 316
-641 259z m280 -284 c66 -34 125 -93 157 -158 25 -50 29 -69 29 -143 0 -72 -4
-93 -27 -142 -35 -72 -110 -140 -185 -168 -75 -29 -195 -25 -260 9 -66 34
-125 93 -157 158 -25 50 -29 69 -29 143 0 76 3 92 31 146 43 83 117 147 203
175 14 5 63 7 110 6 64 -3 95 -9 128 -26z"/>
</g>
</svg>
