<svg xmlns="http://www.w3.org/2000/svg" xmlns:xlink="http://www.w3.org/1999/xlink" version="1.1" id="Layer_1" x="0px"
     y="0px"
     viewBox="0 55 296.842 296.842"
     style="enable-background:new 0 0 0 0;" xml:space="preserve">
<g>
    <path style="fill:#E4E7E7;"
          d="M19.163,134.074h258.515c10.57,0,19.149,8.579,19.149,19.149v124.47   c0,10.57-8.579,19.149-19.149,19.149H19.163c-10.57,0-19.149-8.579-19.149-19.149v-124.47   C0.013,142.643,8.592,134.074,19.163,134.074z"/>
    <path style="fill:#FFFFFF;"
          d="M105.334,162.797H76.61v28.724h28.724V162.797z M105.334,201.096H76.61v28.724h28.724V201.096z    M143.633,201.096h-28.724v28.724h28.724V201.096z M181.932,201.096h-28.724v28.724h28.724V201.096z M181.932,162.797h-28.724   v28.724h28.724V162.797z M143.633,162.797h-28.724v28.724h28.724V162.797z M38.312,191.521h28.724v-28.724H38.312V191.521z    M38.312,268.118h28.724v-28.724H38.312V268.118z M191.507,229.82h28.724v-28.724h-28.724V229.82z M38.312,229.82h28.724v-28.724   H38.312V229.82z M229.804,268.118h28.724v-67.022h-28.724V268.118z M191.507,191.521h28.724v-28.724h-28.724V191.521z    M229.804,162.797v28.724h28.724v-28.724H229.804z M76.61,268.118H220.23v-28.724H76.61V268.118z"/>
</g>
    <g>
</g>
    <g>
</g>
    <g>
</g>
    <g>
</g>
    <g>
</g>
    <g>
</g>
    <g>
</g>
    <g>
</g>
    <g>
</g>
    <g>
</g>
    <g>
</g>
    <g>
</g>
    <g>
</g>
    <g>
</g>
    <g>
</g>
</svg>